<svg width="56" height="60" viewBox="0 0 56 60" fill="none" xmlns="http://www.w3.org/2000/svg">
<path d="M0 11.5582C0 6.79349 3.86258 2.93091 8.62731 2.93091H31.6335C42.7512 2.93091 51.7639 11.9436 51.7639 23.0613V42.2331C51.7639 51.7625 44.0387 59.4877 34.5092 59.4877H8.6273C3.86257 59.4877 0 55.6251 0 50.8604V11.5582Z" fill="#F6ECDE"/>
<path fill-rule="evenodd" clip-rule="evenodd" d="M40.7785 46.9717C42.9955 46.9717 44.3812 44.5717 43.2727 42.6517L28.5004 17.0653C27.3918 15.1453 24.6206 15.1453 23.5121 17.0653L8.73975 42.6517C7.63124 44.5717 9.01688 46.9717 11.2339 46.9717H12.8118C13.6463 46.9717 14.4292 46.5985 15.0288 46.0181C17.7353 43.3981 21.4232 41.7858 25.4875 41.7858C29.5519 41.7858 33.2397 43.3981 35.9463 46.0181C36.5459 46.5985 37.3288 46.9717 38.1633 46.9717H40.7785Z" fill="#0C6DFF"/>
<g filter="url(#filter0_d_130_228)">
<path fill-rule="evenodd" clip-rule="evenodd" d="M51.3576 18.9937L36.5442 3.53251C40.5033 3.33754 44.5219 4.79549 47.4795 7.88238C50.437 10.9693 51.7218 15.0466 51.3576 18.9937Z" fill="#F6ECDE"/>
<path fill-rule="evenodd" clip-rule="evenodd" d="M51.4929 19.128L36.4803 3.45895C36.0468 7.47427 37.3237 11.6464 40.3364 14.7908C43.3491 17.9352 47.4627 19.3894 51.4929 19.128Z" fill="#F6ECDE"/>
</g>
<defs>
<filter id="filter0_d_130_228" x="34.7666" y="2.80638" width="17.7049" height="18.3091" filterUnits="userSpaceOnUse" color-interpolation-filters="sRGB">
<feFlood flood-opacity="0" result="BackgroundImageFix"/>
<feColorMatrix in="SourceAlpha" type="matrix" values="0 0 0 0 0 0 0 0 0 0 0 0 0 0 0 0 0 0 127 0" result="hardAlpha"/>
<feOffset dx="-0.326271" dy="0.652542"/>
<feGaussianBlur stdDeviation="0.652542"/>
<feComposite in2="hardAlpha" operator="out"/>
<feColorMatrix type="matrix" values="0 0 0 0 0 0 0 0 0 0 0 0 0 0 0 0 0 0 0.25 0"/>
<feBlend mode="normal" in2="BackgroundImageFix" result="effect1_dropShadow_130_228"/>
<feBlend mode="normal" in="SourceGraphic" in2="effect1_dropShadow_130_228" result="shape"/>
</filter>
</defs>
</svg>
