<svg width="332" height="62" viewBox="0 0 332 62" fill="none" xmlns="http://www.w3.org/2000/svg">
<path d="M65.752 46.392C66.8613 50.4027 69.8693 52.408 74.776 52.408C77.9333 52.408 80.3227 51.3413 81.944 49.208L88.6 53.048C85.4427 57.6133 80.792 59.896 74.648 59.896C69.3573 59.896 65.112 58.296 61.912 55.096C58.712 51.896 57.112 47.864 57.112 43C57.112 38.1787 58.6907 34.168 61.848 30.968C65.0053 27.7253 69.0587 26.104 74.008 26.104C78.7013 26.104 82.5627 27.7253 85.592 30.968C88.664 34.2107 90.2 38.2213 90.2 43C90.2 44.0667 90.0933 45.1973 89.88 46.392H65.752ZM65.624 39.992H81.944C81.4747 37.816 80.4933 36.1947 79 35.128C77.5493 34.0613 75.8853 33.528 74.008 33.528C71.7893 33.528 69.9547 34.104 68.504 35.256C67.0533 36.3653 66.0933 37.944 65.624 39.992ZM115.77 27H124.858L112.698 59H103.29L91.1295 27H100.218L107.962 49.4L115.77 27Z" fill="#F7ECDE"/>
<path d="M221.72 20.6C217.197 20.2587 214.936 22.072 214.936 26.04V27H221.72V34.936H214.936V59H206.68V34.936H197.208V59H188.952V34.936H184.344V27H188.952V26.68C188.952 22.1573 190.211 18.7227 192.728 16.376C195.245 14.0293 199 13.0053 203.992 13.304V21.24C199.469 20.8987 197.208 22.712 197.208 26.68V27H206.68V26.04C206.68 21.5173 207.939 18.0827 210.456 15.736C213.016 13.3893 216.771 12.3653 221.72 12.664V20.6ZM248.659 27H256.915V59H248.659V55.224C246.184 58.3387 242.707 59.896 238.227 59.896C233.96 59.896 230.291 58.2747 227.219 55.032C224.189 51.7467 222.674 47.736 222.674 43C222.674 38.264 224.189 34.2747 227.219 31.032C230.291 27.7467 233.96 26.104 238.227 26.104C242.707 26.104 246.184 27.6613 248.659 30.776V27ZM233.427 49.528C235.091 51.192 237.203 52.024 239.763 52.024C242.323 52.024 244.435 51.192 246.099 49.528C247.805 47.8213 248.659 45.6453 248.659 43C248.659 40.3547 247.805 38.2 246.099 36.536C244.435 34.8293 242.323 33.976 239.763 33.976C237.203 33.976 235.091 34.8293 233.427 36.536C231.763 38.2 230.931 40.3547 230.931 43C230.931 45.6453 231.763 47.8213 233.427 49.528ZM268.497 23.16C267.132 23.16 265.937 22.6693 264.913 21.688C263.932 20.664 263.441 19.4693 263.441 18.104C263.441 16.7387 263.932 15.544 264.913 14.52C265.937 13.496 267.132 12.984 268.497 12.984C269.905 12.984 271.1 13.496 272.081 14.52C273.105 15.544 273.617 16.7387 273.617 18.104C273.617 19.4693 273.105 20.664 272.081 21.688C271.1 22.6693 269.905 23.16 268.497 23.16ZM264.401 59V27H272.657V59H264.401ZM288.47 32.504C289.238 30.456 290.496 28.92 292.246 27.896C294.038 26.872 296.022 26.36 298.198 26.36V35.576C295.68 35.2773 293.419 35.7893 291.414 37.112C289.451 38.4347 288.47 40.632 288.47 43.704V59H280.214V27H288.47V32.504ZM309.642 36.088C309.642 36.9413 310.197 37.6453 311.306 38.2C312.458 38.712 313.845 39.1813 315.466 39.608C317.087 39.992 318.709 40.504 320.33 41.144C321.951 41.7413 323.317 42.7653 324.426 44.216C325.578 45.6667 326.154 47.48 326.154 49.656C326.154 52.9413 324.917 55.48 322.442 57.272C320.01 59.0213 316.959 59.896 313.29 59.896C306.719 59.896 302.239 57.3573 299.85 52.28L307.018 48.248C307.957 51.0213 310.047 52.408 313.29 52.408C316.234 52.408 317.706 51.4907 317.706 49.656C317.706 48.8027 317.13 48.12 315.978 47.608C314.869 47.0533 313.503 46.5627 311.882 46.136C310.261 45.7093 308.639 45.176 307.018 44.536C305.397 43.896 304.01 42.8933 302.858 41.528C301.749 40.12 301.194 38.3707 301.194 36.28C301.194 33.1227 302.346 30.648 304.65 28.856C306.997 27.0213 309.898 26.104 313.354 26.104C315.957 26.104 318.325 26.7013 320.458 27.896C322.591 29.048 324.277 30.712 325.514 32.888L318.474 36.728C317.45 34.552 315.743 33.464 313.354 33.464C312.287 33.464 311.391 33.6987 310.666 34.168C309.983 34.6373 309.642 35.2773 309.642 36.088Z" fill="#F7ECDE"/>
<path fill-rule="evenodd" clip-rule="evenodd" d="M183.671 52.2856C185.688 55.7789 183.167 60.1456 179.133 60.1456H174.346C172.827 60.1456 171.403 59.4666 170.312 58.4104C165.378 53.633 158.655 50.6928 151.245 50.6928C143.835 50.6928 137.111 53.633 132.178 58.4104C131.087 59.4666 129.662 60.1456 128.144 60.1456H125.246C121.213 60.1456 118.692 55.7789 120.708 52.2856L147.652 5.61811C149.669 2.12478 154.711 2.12477 156.728 5.61811L183.671 52.2856ZM161.779 39.31C162.406 40.3956 161.623 41.7527 160.369 41.7527H158.883C158.411 41.7527 157.969 41.5417 157.63 41.2134C156.097 39.7294 154.008 38.8161 151.706 38.8161C149.405 38.8161 147.316 39.7294 145.783 41.2134C145.444 41.5417 145.002 41.7527 144.53 41.7527H143.631C142.377 41.7527 141.594 40.3956 142.221 39.31L150.59 24.8142C151.217 23.7286 152.783 23.7286 153.41 24.8142L161.779 39.31Z" fill="#0C6DFF"/>
<path fill-rule="evenodd" clip-rule="evenodd" d="M8.62731 2.93091C3.86258 2.93091 0 6.79349 0 11.5582V50.8604C0 55.6251 3.86257 59.4877 8.6273 59.4877H34.5092C44.0387 59.4877 51.7639 51.7625 51.7639 42.2331V23.0613C51.7639 11.9436 42.7512 2.93091 31.6335 2.93091H8.62731ZM18.6667 19C16.6416 19 15 20.6417 15 22.6667V39.3704C15 41.3954 16.6416 43.0371 18.6667 43.0371H29.6667C33.7168 43.0371 37 39.7538 37 35.7037V27.5556C37 22.8305 33.1695 19 28.4444 19H18.6667Z" fill="#F6ECDE"/>
<path fill-rule="evenodd" clip-rule="evenodd" d="M51.3581 18.9937L36.5447 3.53251C40.5038 3.33754 44.5224 4.79549 47.4799 7.88238C50.4375 10.9693 51.7222 15.0466 51.3581 18.9937Z" fill="url(#paint0_linear_130_190)"/>
<path fill-rule="evenodd" clip-rule="evenodd" d="M51.4934 19.128L36.4808 3.45895C36.0473 7.47427 37.3242 11.6464 40.3369 14.7908C43.3496 17.9352 47.4632 19.3894 51.4934 19.128Z" fill="url(#paint1_linear_130_190)"/>
<defs>
<linearGradient id="paint0_linear_130_190" x1="42.5544" y1="2.94679" x2="38.6236" y2="7.85769" gradientUnits="userSpaceOnUse">
<stop stop-color="#FF7608"/>
<stop offset="1" stop-color="#FA4300"/>
</linearGradient>
<linearGradient id="paint1_linear_130_190" x1="35.5551" y1="9.58753" x2="40.813" y2="5.75785" gradientUnits="userSpaceOnUse">
<stop stop-color="#FF7608"/>
<stop offset="1" stop-color="#FA4300"/>
</linearGradient>
</defs>
</svg>
